<?xml version="1.0" encoding="UTF-8"?>
<svg width="288px" height="288px" viewBox="0 0 288 288" version="1.1"
    xmlns="http://www.w3.org/2000/svg" xmlns:xlink="http://www.w3.org/1999/xlink">
    <defs>
        <mask id="hole">
            <rect x="0" y="0" width="100%" height="100%" fill="white" />
            <circle cx="210" cy="155" r="80" fill="black" />
        </mask>
    </defs>

    <g stroke="none" stroke-width="1" fill="none" fill-rule="evenodd"
        mask="url(#hole)"
    >
        <g transform="scale(8, 8)">
            <path
                d="M34.5592717,28.0928444 L18.5379045,0.69978358 C18.1796084,0.0873136379 17.2944486,0.0873136379 16.9361525,0.69978358 L3.32065957,23.9789316 C3.08139471,24.3884473 3.51327379,24.8612058 3.94250773,24.6599347 C4.11877018,24.5769735 4.32220543,24.4935314 4.54559945,24.4103298 L4.54103057,24.4194675 C4.54103057,24.4194675 4.91303332,24.2751872 5.54161457,24.0760804 C6.23440055,23.8632669 6.99355548,23.6617554 7.68081072,23.4915046 C9.60382686,23.0476022 12.1236826,22.68618 14.3958571,23.063473 C16.4869598,23.4104672 17.9432291,23.9709962 19.0039299,24.5219066 C19.4901546,24.774878 19.9494469,24.1400447 19.5562831,23.7579423 C18.0355685,22.2800309 15.6955823,20.4960048 12.1364273,19.7483923 C11.9806046,19.7156888 11.9024528,19.5399072 11.9830093,19.40236 L17.3432635,10.2374339 C17.5195259,9.93636895 17.9545311,9.93636895 18.1307935,10.2374339 L28.3679629,27.7408004 C28.583662,28.1094366 28.4028306,28.5802714 27.9978839,28.7158949 C27.1956853,28.9840158 26.2374236,29.1845654 25.1646994,29.1845654 C24.4822535,29.1845654 23.7957197,29.1040089 23.1075026,28.9440982 C23.1070216,28.9440982 21.1236482,28.63101 18.4720165,27.0489763 C15.8203847,25.4671831 10.7078117,23.4491824 4.97098592,26.7161697 C2.52663689,28.2869014 0.897952594,30.4352353 0.0397251804,31.7840158 C-0.0946959808,31.995146 0.137354861,32.2469151 0.358103744,32.1290862 C2.32921333,31.0760804 7.64377877,28.5891687 12.4326829,29.4832257 C15.2790931,30.0144177 18.5318928,32.1632326 21.9133425,33.3953865 C27.5070903,35.4682137 32.9911852,31.9953865 33.0029681,31.987932 C33.5827345,31.6048677 33.923236,31.313662 33.9811886,31.2631639 L34.0511645,31.2020852 C34.9449811,30.4220096 35.1582755,29.1167537 34.5592717,28.0928444"
                fill="#00ADD4"></path>
        </g>
    </g>
    <g transform="translate(140, 80)">
        <g transform="scale(.5,.5)">
            <path
                d="M255.569,84.452376 C255.567,79.622376 254.534,75.354376 252.445,71.691376 C250.393,68.089376 247.32,65.070376 243.198,62.683376 C209.173,43.064376 175.115,23.505376 141.101,3.86637605 C131.931,-1.42762395 123.04,-1.23462395 113.938,4.13537605 C100.395,12.122376 32.59,50.969376 12.385,62.672376 C4.064,67.489376 0.015,74.861376 0.013,84.443376 C0,123.898376 0.013,163.352376 0,202.808376 C0,207.532376 0.991,211.717376 2.988,215.325376 C5.041,219.036376 8.157,222.138376 12.374,224.579376 C32.58,236.282376 100.394,275.126376 113.934,283.115376 C123.04,288.488376 131.931,288.680376 141.104,283.384376 C175.119,263.744376 209.179,244.186376 243.209,224.567376 C247.426,222.127376 250.542,219.023376 252.595,215.315376 C254.589,211.707376 255.582,207.522376 255.582,202.797376 C255.582,202.797376 255.582,123.908376 255.569,84.452376"
                fill="#A179DC" fill-rule="nonzero"></path>
            <path
                d="M128.182,143.241376 L2.988,215.325376 C5.041,219.036376 8.157,222.138376 12.374,224.579376 C32.58,236.282376 100.394,275.126376 113.934,283.115376 C123.04,288.488376 131.931,288.680376 141.104,283.384376 C175.119,263.744376 209.179,244.186376 243.209,224.567376 C247.426,222.127376 250.542,219.023376 252.595,215.315376 L128.182,143.241376"
                fill="#280068" fill-rule="nonzero"></path>
            <path
                d="M255.569,84.452376 C255.567,79.622376 254.534,75.354376 252.445,71.691376 L128.182,143.241376 L252.595,215.315376 C254.589,211.707376 255.58,207.522376 255.582,202.797376 C255.582,202.797376 255.582,123.908376 255.569,84.452376"
                fill="#390091" fill-rule="nonzero"></path>
            <path
                d="M201.892326,116.294008 L201.892326,129.767692 L215.36601,129.767692 L215.36601,116.294008 L222.102852,116.294008 L222.102852,129.767692 L235.576537,129.767692 L235.576537,136.504534 L222.102852,136.504534 L222.102852,149.978218 L235.576537,149.978218 L235.576537,156.71506 L222.102852,156.71506 L222.102852,170.188744 L215.36601,170.188744 L215.36601,156.71506 L201.892326,156.71506 L201.892326,170.188744 L195.155484,170.188744 L195.155484,156.71506 L181.6818,156.71506 L181.6818,149.978218 L195.155484,149.978218 L195.155484,136.504534 L181.6818,136.504534 L181.6818,129.767692 L195.155484,129.767692 L195.155484,116.294008 L201.892326,116.294008 Z M215.36601,136.504534 L201.892326,136.504534 L201.892326,149.978218 L215.36601,149.978218 L215.36601,136.504534 Z"
                fill="#FFFFFF"></path>
            <path
                d="M128.456752,48.625876 C163.600523,48.625876 194.283885,67.7121741 210.718562,96.0819435 L210.558192,95.808876 L169.209615,119.617159 C161.062959,105.823554 146.128136,96.5150717 128.996383,96.3233722 L128.456752,96.3203544 C102.331178,96.3203544 81.1506705,117.499743 81.1506705,143.625316 C81.1506705,152.168931 83.4284453,160.17752 87.3896469,167.094792 C95.543745,181.330045 110.872554,190.931398 128.456752,190.931398 C146.149522,190.931398 161.565636,181.208041 169.67832,166.820563 L169.481192,167.165876 L210.767678,191.083913 C194.51328,219.21347 164.25027,238.240861 129.514977,238.620102 L128.456752,238.625876 C93.2021701,238.625876 62.4315028,219.422052 46.0382398,190.902296 C38.0352471,176.979327 33.4561922,160.837907 33.4561922,143.625316 C33.4561922,91.1592636 75.9884604,48.625876 128.456752,48.625876 Z"
                fill="#FFFFFF" fill-rule="nonzero"></path>
        </g>
    </g>


</svg>